<?xml version="1.0" encoding="UTF-8" standalone="no"?>
<!-- Created with Inkscape (http://www.inkscape.org/) -->

<svg
   xmlns:dc="http://purl.org/dc/elements/1.1/"
   xmlns:cc="http://creativecommons.org/ns#"
   xmlns:rdf="http://www.w3.org/1999/02/22-rdf-syntax-ns#"
   xmlns:svg="http://www.w3.org/2000/svg"
   xmlns="http://www.w3.org/2000/svg"
   version="1.1"
   viewBox="0 0 1059.8625 751.59998"
   id="svg2985"
   xml:space="preserve"><metadata
     id="metadata2991"><rdf:RDF><cc:Work
         rdf:about=""><dc:format>image/svg+xml</dc:format><dc:type
           rdf:resource="http://purl.org/dc/dcmitype/StillImage" /><dc:title></dc:title></cc:Work></rdf:RDF></metadata><defs
     id="defs2989"><clipPath
       id="clipPath2999"><path
         d="m 0,601.28 847.89,0 L 847.89,0 0,0 0,601.28 z"
         id="path3001" /></clipPath></defs><g
     transform="matrix(1.25,0,0,-1.25,0,751.6)"
     id="g2993"><g
       id="g2995"><g
         clip-path="url(#clipPath2999)"
         id="g2997"><g
           transform="translate(257.4355,425.833)"
           id="g3003"><path
             d="m 0,0 c -34.684,0.002 -86.284,-19.075 -101.46,-79.785 0,0 -8.947,-41.884 31.425,-71.342 22.633,-16.515 46.195,-24.676 61.834,-28.878 l -2.986,-67.501 c 0,0 -0.438,-4.486 4.211,-4.486 0.055,0 0.108,10e-4 0.164,0.002 l 31.333,68.706 0.091,0 c 4.648,0 22.802,1.518 48.833,5.202 -0.087,-0.459 -0.171,-0.918 -0.255,-1.385 -2.255,-12.563 -3.605,-26.268 -3.605,-37.259 0,-8.423 0.45,-12.135 3.003,-23.266 -2.4,-2.57 -4.055,-3.429 -6.005,-3.429 -2.255,0 -3.458,1.286 -4.958,4.854 -1.348,3.283 -2.553,10.565 -2.553,15.56 0,2.429 0.299,5.285 1.053,8.706 0.599,3.571 0.748,3.998 0.748,4.858 0,1.569 -0.149,1.711 -2.103,1.997 -0.751,0.141 -1.2,0.283 -2.252,0.715 -0.149,0.996 -0.149,1.851 -0.149,2.283 0,0.855 0,1.427 0.149,2.283 0.15,0.569 0.15,1.001 0.15,1.142 0,2.424 -1.953,8.423 -3.152,9.848 -1.053,1.287 -2.405,1.715 -6.01,2.429 -1.354,0.141 -2.702,0.424 -3.753,0.714 -2.552,0.714 -4.506,0.996 -5.707,0.996 -8.561,0 -18.323,-21.124 -18.323,-39.397 0,-14.987 6.309,-24.694 16.071,-24.694 5.705,0 9.762,4.14 14.717,15.415 1.803,-4.139 2.703,-5.708 3.456,-7.137 2.253,-3.852 6.007,-6.277 9.46,-6.277 3.603,0 7.059,1.283 10.963,4.135 3.005,-6.136 8.714,-10.562 13.815,-10.562 4.658,0 8.264,4.854 11.869,16.13 0.804,2.487 1.498,4.92 2.098,7.302 0.005,-1.197 0.015,-2.401 0.154,-3.732 0.151,-2.57 0.302,-4.853 0.302,-5.567 0,-0.432 0,-0.573 -0.151,-1.001 0,-0.855 -0.151,-1.428 -0.151,-1.428 0,-1.142 1.652,-3.994 3.005,-5.277 1.499,-1.433 3.904,-2.429 6.156,-2.429 1.503,0 2.103,0.714 3.002,3.994 l 3.906,14.993 c 1.049,4.138 4.955,14.701 6.909,18.553 2.855,5.713 4.356,7.424 5.856,7.57 1.051,0 1.803,-1.429 1.803,-3.288 l 0.302,-25.41 -0.602,-5.995 c -0.302,-0.569 -0.452,-0.997 -0.452,-1.283 0,-2.142 5.858,-6.281 8.864,-6.281 1.801,0 2.55,1.715 3.002,6.709 0.6,4.853 6.01,21.697 10.064,31.118 1.502,3.57 3.154,5.995 4.205,5.995 0.9,0 1.499,-1.711 1.499,-4.422 l 0,-12.849 c -1.052,-17.413 3.158,-29.977 9.912,-29.977 3.307,0 6.462,3.002 9.463,8.566 0.617,1.172 1.22,2.487 1.794,3.883 1.42,-3.51 3.444,-6.258 6.014,-8.023 2.703,-1.856 9.013,-3.57 12.768,-3.57 5.704,0 11.265,6.281 14.866,16.847 l 7.36,21.411 0.903,2.711 c 0.137,0.914 0.4,1.589 0.558,1.589 0.015,0 0.029,-0.007 0.042,-0.019 l 0.149,0 0.149,0 0.302,-0.283 c 0.149,-0.286 0.149,-0.855 0.149,-2.714 0,-1.998 0,-2.853 -0.297,-5.136 l -0.303,-3.571 -1.051,-18.272 c -0.153,-3.998 4.807,-8.993 8.859,-8.993 1.954,0 3.909,1.997 4.658,4.853 l 3.908,14.275 c 2.699,9.851 6.458,18.413 7.956,18.413 0.902,0 1.35,-1.424 1.35,-3.708 l 0,-16.702 c 0,-7.71 1.656,-13.992 4.508,-17.417 2.555,-2.994 6.31,-5.136 9.013,-5.136 1.499,0 2.404,0.428 3.303,1.569 0.777,0.86 1.746,2.221 2.719,3.763 2.237,-1.365 5.725,-2.907 6.742,-2.907 1.204,0 2.252,1.573 2.703,3.998 2.855,16.416 12.315,39.255 16.22,39.255 0.752,0 1.502,-1 1.502,-2.287 l 0.302,-16.13 c 0.298,-15.275 6.156,-27.407 13.215,-27.407 2.691,0 6.023,4.265 8.64,11.006 2.322,-5.748 6.559,-8.863 12.386,-8.863 5.25,0 8.707,4.426 13.215,16.702 0.447,0.997 0.903,2.139 1.35,3.426 2.252,-11.563 3.907,-14.988 8.11,-17.135 2.405,-1.283 5.104,-2.137 6.155,-2.137 3.309,0 8.714,8.851 12.917,20.983 l 7.812,23.267 1.204,-13.133 0.899,-6.709 c 0.326,-2.472 0.561,-4.517 0.73,-6.411 l 8.13,4.661 c -0.051,0.29 -0.099,0.589 -0.146,0.894 -1.051,6.996 -1.655,11.136 -1.655,14.561 l -0.303,10.848 c 0,2.001 0.303,4.281 0.907,6.565 0.149,1 0.298,1.714 0.298,2.429 0,2.428 -3.755,4.425 -8.86,4.712 l -0.021,0 c -0.439,0 -0.744,0.036 -0.995,0.071 -0.252,0.037 -0.452,0.073 -0.674,0.073 -0.357,0 -0.776,-0.092 -1.577,-0.423 -0.671,-0.271 -0.938,-2.72 -0.938,-2.72 l -5.56,-20.127 c -2.554,-9.42 -7.51,-22.698 -10.515,-28.407 -1.499,-2.856 -2.1,-3.425 -2.853,-3.425 -1.95,0 -3.453,5.564 -3.453,12.418 0,0.141 0,1.283 0.153,2.998 l 0.596,8.706 0.455,3.571 0.452,3.57 0.145,1.997 c 0,0 0.181,1.507 0.303,1.997 0.109,0.44 0.298,0.86 0.298,1 0,0.428 -1.047,2.284 -2.249,3.999 -0.749,0.996 -2.554,1.856 -4.057,1.856 -0.45,0 -1.349,-0.146 -2.401,-0.432 -1.502,-0.282 -1.491,-0.593 -1.73,-1.141 -2.092,-4.788 -1.884,-8.338 -3.228,-14.275 l -4.207,-12.99 c -2.848,-8.707 -7.505,-16.417 -9.912,-16.417 -2.251,0 -3.903,4.853 -3.903,12.136 0,3.425 0.451,9.279 1.048,11.562 l 3.456,14.988 c 0.447,1.715 1.052,3.708 1.806,5.996 0.447,1.141 0.599,1.856 0.599,2.424 0,2.001 -2.852,4.286 -5.257,4.286 -3.606,0 -4.356,-0.288 -4.508,-1.715 l -0.448,-1.711 -4.206,-17.13 c -1.201,-4.999 -1.801,-10.135 -1.801,-14.988 0,-1.083 0.036,-2.123 0.103,-3.127 -1.433,-4.591 -2.967,-8.232 -4.458,-10.437 -1.051,-1.711 -3.755,-3.708 -4.653,-3.708 -1.502,0.142 -2.252,4.422 -2.252,12.987 l 0,0.855 0.451,17.704 c -0.307,13.277 -2.707,17.844 -9.464,17.844 -4.811,0 -6.606,-1.283 -10.06,-7.996 -2.526,-4.56 -5.586,-11.547 -8.906,-20.187 -0.629,-1.637 -1.264,-3.327 -1.911,-5.077 -0.601,2.283 -0.75,3.284 -0.75,4.994 0,0.856 0.017,1.872 0.047,2.967 0.126,4.586 0.491,10.637 0.852,12.595 l 1.954,12.559 c 0,0 0.585,2.303 0.463,3.194 -0.354,2.634 -1.911,5.241 -4.51,5.241 -0.996,0 -2.145,-0.383 -3.439,-1.294 -0.338,-0.236 -0.471,-1.573 -0.471,-1.573 l -2.704,-16.272 c -0.753,-5.14 -1.655,-14.133 -1.655,-17.703 l 0,-1.142 0.454,-9.275 c 0.056,-2.354 0.186,-4.19 0.39,-5.635 -0.13,-0.266 -0.26,-0.525 -0.39,-0.792 -1.054,-2.283 -2.557,-3.994 -3.456,-3.994 l -0.902,0.568 c -2.104,1.288 -3.002,4.14 -3.002,9.707 l 0,3.567 0.149,2.716 0,0.286 -0.149,10.707 c 0,12.415 -2.703,19.842 -7.211,19.842 -1.503,0 -3.304,-0.86 -4.505,-2.284 -2.856,-3.143 -6.76,-9.852 -8.412,-14.564 l -5.857,-16.985 0.301,12.563 0.15,3.139 0.149,2.57 0,2.853 c 0.153,2.855 0.153,4.57 0.302,6.139 0.152,2.139 0.152,3.708 0.152,4.709 0,5.426 -1.957,8.42 -5.558,8.42 -3.756,0 -7.06,-2.566 -8.413,-6.419 l -9.762,-29.407 c -4.202,-12.418 -7.505,-16.985 -12.465,-16.985 -5.254,0 -8.863,6.709 -8.863,16.557 0,0.714 0,1.856 0.156,3.284 2.7,-0.714 3.603,-0.859 5.705,-0.859 8.107,0 14.714,8.424 14.714,18.703 0,3.712 -1.048,7.706 -2.853,10.563 -0.447,0.71 -0.75,0.855 -2.248,1.711 l -1.651,1.004 -0.754,0.711 c -2.133,1.791 -4.752,3.324 -7.432,3.324 -0.523,0 -1.05,-0.059 -1.577,-0.186 -1.165,-0.279 -3.582,-1.083 -4.355,-2.001 l -0.153,-0.424 c -0.599,-1.287 -0.753,-1.569 -1.499,-2.856 -4.056,-7.137 -7.36,-19.982 -7.36,-29.121 0,-2.295 0.152,-4.461 0.436,-6.497 -0.825,-1.813 -1.966,-4.253 -3.74,-8.064 -1.8,-3.711 -3.601,-5.422 -5.559,-5.422 -1.797,0 -2.7,4.14 -2.55,10.849 l 0,5.14 0,1.997 1.051,16.13 c 0.149,1.711 0.149,2.998 0.149,3.425 0,2.429 -0.6,6.282 -1.35,7.851 -0.75,1.856 -3.606,3.139 -7.058,3.139 -2.108,0 -6.461,-3.994 -8.715,-7.992 l -5.405,-9.42 c -1.351,-2.567 -3.003,-6.71 -4.055,-9.707 0,3.711 -0.149,4.425 -0.299,7.422 l -0.151,3.854 c -0.601,11.135 -2.253,14.133 -8.26,14.133 -3.606,0 -5.406,-0.997 -8.41,-5.141 -4.204,-5.563 -7.81,-12.704 -12.467,-23.835 l 2.252,32.97 c 0.152,1.432 0.152,1.432 0.152,1.859 0,1.287 -0.451,1.57 -2.404,1.856 l -1.35,0.141 c -0.449,0.109 -0.817,0.164 -1.099,0.164 -0.095,0 -0.18,-0.005 -0.255,-0.018 -1.628,-0.283 -5.399,-1.927 -5.555,-3.57 -0.118,-1.241 1.2,-1.857 1.2,-2.999 0,-0.713 0,-1.287 -0.149,-1.997 -0.757,-6.191 -1.354,-11.476 -1.805,-16.015 l -1.799,-7.538 c -0.904,-3.284 -5.86,-14.847 -9.915,-22.698 -1.349,-2.574 -2.552,-3.998 -3.603,-3.998 -2.402,0 -4.803,4.567 -6.756,12.56 4.657,7.996 6.756,13.136 9.612,22.697 4.078,13.054 7.047,29.149 7.576,40.025 12.763,2.088 26.802,4.5 41.763,7.505 98.541,19.792 151.565,22.572 173.566,22.572 8.586,0 12.442,-0.423 12.442,-0.423 94.32,-1.365 99.887,-41.594 93.373,-60.18 -3.483,-9.962 -16.548,-19.162 -27.926,-25.565 -2.971,-1.672 -5.824,-3.155 -8.367,-4.41 -5.9,-2.904 -10.102,-4.591 -10.102,-4.591 -1.483,-0.404 -2.983,-2.139 -2.983,-3.767 0,-1.569 0.597,-2.283 3.454,-4.139 0,0 3.955,-2.554 5.402,-3.139 2.515,-1.016 4.044,-1.194 5.217,-1.194 0.635,0 1.167,0.052 1.693,0.052 2.256,0 4.061,0.996 5.56,3.139 1.051,1.715 1.2,2.429 1.2,6.709 0,1.742 -0.07,3.383 -0.302,5.567 42.955,15.632 40.169,48.621 40.169,48.621 -6.725,50.517 -103.656,50.881 -103.656,50.881 -17.299,-0.004 -42.14,-1.463 -68.067,-4.174 -26.17,-2.739 -91.909,-16.625 -118.478,-21.352 -6.739,-1.2 -33.27,-6.435 -43.887,-7.867 -0.082,6.278 -0.969,11.677 -2.394,14.117 -1.349,2.57 -6.158,5.281 -9.159,5.281 -4.077,0 -8.657,-8.118 -11.83,-20.371 l 10.334,1.021 c 1.496,5.213 3.083,8.502 4.497,8.502 1.505,0 2.403,-2.998 2.403,-8.279 0,-0.365 -0.007,-0.726 -0.007,-1.087 -0.01,-1.487 -0.036,-2.963 -0.079,-4.422 -0.482,-16.534 -3.164,-31.075 -8.173,-44.454 -1.05,-2.57 -2.103,-5.426 -3.903,-9.993 -0.6,5.995 -0.6,6.995 -0.6,14.278 0,12.645 1.839,27.826 4.223,38.863 2.195,0.329 4.455,0.679 6.743,1.039 l 0.201,4.485 c -1.924,-0.247 -3.862,-0.495 -5.808,-0.742 -3.449,-0.431 -6.935,-0.78 -10.342,-1.27 -27.495,-3.987 -47.492,-4.69 -47.492,-4.69 l 36.215,83.282 c 0,0 -2.283,-16.338 -1.754,-25.35 0.534,-9.004 3.948,-9.28 4.848,-9.28 0.904,0 1.444,2.166 1.444,2.166 5.234,38.609 12.993,41.676 16.778,43.662 1.264,0.661 2.541,0.88 3.683,0.88 2.283,0 4.023,-0.88 4.023,-0.88 3.018,8.118 -2.295,11.363 -6.384,12.022 -0.127,0.021 -0.26,0.031 -0.396,0.031 -4.197,0.001 -11.931,-9.53 -11.931,-9.53 -1.683,7.536 -3.756,9.453 -5.428,9.453 -1.732,0 -3.035,-2.054 -3.035,-2.054 l -65.406,-147.659 1.448,39.354 c 6.831,-0.892 10.895,-0.99 12.347,-0.99 0.407,0 0.608,0.008 0.608,0.008 l 1.921,4.76 c -4.033,0.373 -7.184,0.648 -9.693,0.859 -10.566,1.342 -28.257,4.748 -45.368,13.329 -1.914,0.968 -3.771,1.969 -5.564,2.998 -0.315,0.179 -0.63,0.36 -0.942,0.548 -36.157,21.172 -47.803,54.106 -41.734,83.067 7.584,36.209 47.752,71.852 87.297,71.852 1.175,0 2.344,-0.031 3.518,-0.094 32.81,-1.785 53.246,-22.016 52.697,-49.574 -0.553,-27.556 -26.766,-35.199 -35.412,-36.451 -0.976,-0.141 -2.176,-0.224 -3.534,-0.224 -10.679,0 -31.231,5.151 -30.862,28.066 0.413,25.433 8.085,32.245 9.412,32.245 0.021,0 0.04,-10e-4 0.057,-0.005 1.144,-0.208 0.454,-4.779 0.87,-6.76 0.417,-1.978 -0.416,-39.994 -0.52,-42.387 -0.102,-2.393 8.018,-5.308 8.018,-5.308 0,0 2.187,48.428 1.357,53.631 -0.818,5.111 -3.842,7.815 -7.595,7.815 -0.073,0 -0.146,-10e-4 -0.218,-0.003 -3.856,-0.102 -17.702,-10.934 -19.788,-34.053 -1.518,-16.867 6.001,-30.564 17.535,-37.231 l -3.415,-75.724 c 3.072,-1.229 6.22,-1.793 9.267,-1.923 l 2.933,74.147 c 1.769,-0.42 3.584,-0.702 5.443,-0.824 1.167,-0.077 2.38,-0.118 3.63,-0.118 19.07,0 46.857,9.363 51.258,40.735 C 69.336,-25.836 35.801,-0.423 1.124,-0.007 0.753,-0.002 0.375,0 0,0 m 240.266,-122.762 c -3.264,0 -6.035,4.245 -6.72,10.145 -0.11,0.914 -0.165,1.863 -0.165,2.845 0,6.049 2.236,16.867 4.74,23.839 0.329,0.934 0.671,1.798 1.008,2.57 3.194,7.282 7.824,11.708 12.301,11.708 3.35,0 7.184,-5.568 7.184,-10.421 l 0,-1.287 0,-1.57 c -0.635,-0.568 -0.635,-0.713 -1.118,-1.287 0,0 -1.664,-4.461 -2.072,-5.991 -0.652,-2.424 -1.919,-9.852 -1.919,-9.852 -2.236,-10.848 -8.146,-20.41 -13.101,-20.696 -0.047,-0.002 -0.092,-0.003 -0.138,-0.003 M 34.593,-246.561 c -3.454,0 -6.16,6.283 -6.16,14.42 0,4.853 2.252,19.127 3.757,23.839 2.854,8.993 7.355,14.848 11.563,14.848 1.652,0 3.906,-1.147 4.957,-2.574 1.049,-1.57 2.401,-6.137 2.401,-8.28 l 0,-1.569 c -0.058,-0.51 0.42,-1.303 0.153,-2.856 -0.223,-1.287 -1.682,-3.575 -1.956,-4.854 -0.151,-0.71 -0.298,-2.565 -1.2,-5.991 l -3.605,-12.708 c -2.102,-7.852 -6.606,-14.275 -9.91,-14.275 m 159.047,24.982 c -3.156,0 -4.661,1.283 -4.661,3.857 0,1.997 0.305,4.135 0.906,6.137 l 1.2,3.711 c 1.499,4.709 4.355,7.992 7.059,7.992 1.801,0 3.15,-2.997 3.15,-6.563 0,-7.283 -4.053,-15.134 -7.654,-15.134 m 188.484,-20.842 c -2.681,0.13 -5.238,0.824 -6.403,1.68 2.66,0.545 5.19,1.137 7.599,1.785 l 0,-0.608 c 0,-2.288 -0.301,-2.857 -1.196,-2.857 m -276.87,168.757 c -1.677,0 -3.183,-0.275 -3.183,-0.275 -1.721,-0.345 -2.074,-0.287 -2.233,-1.428 l -1.118,-5.285 c -1.118,-5.704 -2.08,-16.416 -2.08,-22.266 0,-6.423 0.801,-11.991 2.08,-15.274 2.233,-5.709 7.188,-9.567 12.139,-9.567 2.555,0 5.111,1.857 7.666,5.427 0.107,0.153 0.217,0.321 0.329,0.506 -1.913,3.175 -2.492,8.028 -2.492,8.028 -2.307,-4.709 -4.765,-7.961 -6.142,-7.961 -2.237,0 -3.677,4.422 -3.677,11.559 0,1.573 0.162,3.429 0.323,5.853 l 1.435,12.705 c 0.323,1.428 0.801,3.853 1.28,7.423 0,0 1.172,7.236 -0.144,9.221 -0.705,1.066 -2.527,1.334 -4.183,1.334 m 138.187,8.146 c -3.515,0 -7.187,-2.711 -10.06,-7.424 -5.591,-9.42 -8.788,-21.838 -8.788,-33.829 0,-3.579 0.423,-6.509 1.298,-9.103 -0.828,-1.581 -1.558,-2.899 -2.095,-3.747 -1.279,-2.138 -2.236,-2.852 -3.359,-2.852 -0.795,0 -1.911,0.427 -2.711,0.996 -1.44,1.288 -1.44,1.288 -1.44,10.994 l 0.161,19.269 c 0.16,3.999 -0.478,8.568 -1.118,11.562 -0.801,2.999 -3.673,5.568 -6.388,5.568 -0.321,0 -3.036,-0.714 -3.511,-1.001 -0.805,-0.282 -1.118,-0.709 -2.402,-2.138 -3.673,-4.567 -6.065,-9.279 -11.339,-22.839 l -3.037,-7.564 0.161,16.271 c 0.162,7.422 -2.554,11.417 -7.663,11.417 -3.354,0 -8.309,-6.282 -13.096,-16.271 l -5.435,-11.562 1.915,22.125 0,1.713 c 0,4.71 -0.158,5.996 -0.953,8.28 -0.77,2.335 -2.569,4.006 -4.555,4.006 -0.08,0 -0.16,-0.003 -0.24,-0.008 -3.194,-0.146 -7.028,-1.146 -8.463,-2.284 -1.118,-0.714 -2.559,-3.143 -3.834,-6.426 l -5.434,-13.561 c -0.957,-2.141 -0.476,-1 -1.277,-3.142 -0.796,-2.138 -1.597,-4.281 -2.235,-6.423 -3.676,-10.849 -5.592,-14.843 -6.87,-14.988 -0.017,-0.003 -0.034,-0.004 -0.051,-0.004 -1.086,0 -1.702,4.383 -1.702,10.425 0,1.287 0,2.142 0.157,4.14 l 0.319,4.853 0.48,5.854 2.233,10.421 0.804,2.425 c 0.319,1.142 0.636,2.001 0.636,2.428 0,1.998 -2.715,3.998 -5.11,3.998 -1.116,0 -2.556,-0.145 -3.992,-0.431 -1.438,-0.142 -1.413,-0.534 -1.648,-0.75 0,0 -1.107,-3.598 -1.386,-4.818 -0.425,-1.837 -1.278,-7.42 -1.278,-7.42 -0.962,-4.998 -1.281,-9.279 -1.281,-16.989 0,-3.711 0.178,-6.814 0.556,-9.451 0,0 0.58,-4.853 2.491,-8.028 0.247,-0.424 0.506,-0.836 0.788,-1.219 1.758,-2.571 5.43,-4.282 8.785,-4.282 3.677,0 6.231,3.566 9.742,13.419 l 9.424,26.55 c 0.952,2.41 2.678,6.138 3.187,6.138 0.003,0 0.006,-0.001 0.009,-0.001 0.312,-0.027 0.979,-0.286 1.117,-0.569 0.423,-0.875 0.478,-3.856 0.478,-3.856 l 0,-0.428 -2.395,-24.409 c -0.16,-2 -0.64,-8.993 -0.64,-10.28 0,-3.138 1.281,-4.712 4.793,-5.853 l 1.758,-0.57 c 0.957,-0.427 1.758,-0.573 2.393,-0.573 1.758,0 3.355,1.428 3.515,3.43 0.479,4.28 3.36,13.701 6.55,21.124 2.714,6.427 6.548,13.705 7.348,13.847 1.115,-0.142 1.115,-0.283 1.436,-1.856 0.8,-4.14 0.961,-5.14 0.961,-8.707 l -0.161,-9.707 c -1.121,-9.993 -1.121,-9.993 -1.121,-10.561 0,-2.856 3.837,-6.569 6.869,-6.569 1.915,0 4.152,2.57 4.474,4.999 0.478,5.422 10.221,30.69 13.575,35.403 0.847,1.254 1.194,1.735 1.483,1.735 0.039,0 0.077,-0.008 0.115,-0.025 0.639,-0.287 1.117,-3.999 1.117,-8.707 0,-1.427 0,-2.714 -0.156,-4.571 l 0,-5.281 0.478,-5.422 c 0.157,-1.856 1.118,-6.14 2.237,-9.134 1.118,-3.716 2.557,-5.854 4.947,-7.996 1.974,-1.763 4.522,-3.009 6.279,-3.009 0.094,0 0.185,0.004 0.274,0.011 1.753,0.142 3.994,1.711 6.069,4.28 0.55,0.699 1.106,1.527 1.66,2.456 3.276,-3.868 8.169,-6.45 12.555,-6.45 4.316,0 8.946,2.712 11.661,6.851 l 4.151,6.137 c 3.516,-9.276 6.07,-12.278 10.225,-12.278 2.076,0 3.991,1.857 5.431,5.286 1.436,3.994 1.804,4.213 2.076,5.708 0.049,0.283 -0.48,1.001 -0.64,1.001 -0.318,0 -1.597,-1.287 -2.236,-2.288 -1.119,-1.855 -3.034,-3.279 -4.153,-3.279 -1.596,0 -2.553,6.136 -2.553,14.843 0,0.43 0,1.286 0.157,2.001 l 0.639,8.564 0.322,1.57 c 0,0 0.165,1.302 0.322,1.714 0.385,1.044 1.91,2.786 2.232,3.854 0.204,0.682 -1.119,1.57 -3.515,2.997 l -1.44,1.142 0,1.71 c 0,8.424 -2.877,12.992 -9.26,14.707 -1.118,0.141 -1.28,0.286 -1.919,0.572 -2.393,1.137 -6.865,2.139 -9.903,2.139 M 109.298,-44.72 c -4.409,0 -7.981,-3.665 -7.981,-8.184 0,-4.517 3.572,-8.18 7.981,-8.18 4.41,0 7.982,3.663 7.982,8.18 0,4.519 -3.572,8.184 -7.982,8.184 m 24.938,0 c -4.406,0 -7.981,-3.665 -7.981,-8.184 0,-4.517 3.575,-8.18 7.981,-8.18 4.411,0 7.986,3.663 7.986,8.18 0,4.519 -3.575,8.184 -7.986,8.184"
             id="path3005"
             style="fill:#fcf8de;fill-opacity:1;fill-rule:nonzero;stroke:none" /></g><g
           transform="translate(642.3477,188.5801)"
           id="g3007"><path
             d="m 0,0 c -2.68,0.127 -5.238,0.821 -6.404,1.679 2.66,0.544 5.191,1.137 7.6,1.783 l 0,-0.608 C 1.196,0.568 0.895,0 0,0 m -192.24,30.833 1.201,3.712 c 1.498,4.71 4.354,7.992 7.059,7.992 1.8,0 3.15,-2.996 3.15,-6.564 0,-7.283 -4.054,-15.133 -7.655,-15.133 -3.155,0 -4.661,1.283 -4.661,3.856 0,1.997 0.306,4.138 0.906,6.137 m -138.62,2.855 c -0.223,-1.29 -1.683,-3.575 -1.956,-4.854 -0.151,-0.71 -0.298,-2.568 -1.201,-5.993 l -3.603,-12.707 c -2.103,-7.851 -6.608,-14.274 -9.911,-14.274 -3.455,0 -6.16,6.282 -6.16,14.417 0,4.854 2.252,19.129 3.756,23.84 2.855,8.992 7.355,14.847 11.563,14.847 1.652,0 3.906,-1.144 4.958,-2.572 1.049,-1.57 2.401,-6.138 2.401,-8.281 l 0,-1.569 c -0.059,-0.509 0.42,-1.301 0.153,-2.854 M 50.374,54.902 c -6.725,50.516 -103.657,50.879 -103.657,50.879 -17.299,-0.002 -42.139,-1.462 -68.066,-4.175 -26.171,-2.739 -91.91,-16.624 -118.479,-21.352 -6.738,-1.198 -33.269,-6.433 -43.886,-7.866 -0.083,6.279 -0.97,11.676 -2.394,14.116 -1.35,2.57 -6.158,5.283 -9.16,5.283 -4.076,0 -8.657,-8.117 -11.829,-20.371 l 10.333,1.019 c 1.496,5.213 3.084,8.502 4.498,8.502 1.505,0 2.403,-2.998 2.403,-8.279 0,-0.365 -0.008,-0.723 -0.008,-1.087 -0.009,-1.487 -0.035,-2.962 -0.078,-4.42 -0.483,-16.534 -3.164,-31.077 -8.173,-44.454 -1.051,-2.572 -2.103,-5.426 -3.904,-9.995 -0.6,5.997 -0.6,6.995 -0.6,14.278 0,12.646 1.84,27.828 4.223,38.863 2.196,0.33 4.456,0.68 6.743,1.04 l 0.201,4.484 c -1.923,-0.245 -3.862,-0.494 -5.808,-0.739 -3.448,-0.432 -6.935,-0.781 -10.342,-1.274 -27.495,-3.984 -47.491,-4.688 -47.491,-4.688 l 36.215,83.283 c 0,0 -2.284,-16.34 -1.754,-25.349 0.534,-9.007 3.947,-9.28 4.847,-9.28 0.905,0 1.444,2.166 1.444,2.166 5.234,38.608 12.993,41.674 16.779,43.66 3.79,1.983 7.706,0 7.706,0 3.018,8.118 -2.295,11.364 -6.383,12.023 -4.085,0.657 -12.328,-9.499 -12.328,-9.499 -3.426,15.336 -8.464,7.398 -8.464,7.398 l -65.405,-147.66 1.447,39.354 c 8.746,-1.142 12.956,-0.979 12.956,-0.979 l 1.921,4.757 c -4.034,0.375 -7.184,0.649 -9.693,0.861 -10.566,1.34 -28.258,4.748 -45.369,13.327 -1.914,0.971 -3.77,1.969 -5.563,2.998 -0.316,0.18 -0.63,0.36 -0.942,0.548 -36.158,21.174 -47.803,54.109 -41.735,83.069 7.81,37.283 50.163,73.965 90.815,71.758 32.811,-1.786 53.247,-22.017 52.697,-49.575 -0.553,-27.556 -26.766,-35.2 -35.412,-36.45 -8.643,-1.247 -34.811,2.014 -34.396,27.842 0.42,25.827 8.326,32.45 9.47,32.24 1.143,-0.208 0.453,-4.781 0.869,-6.76 0.418,-1.978 -0.416,-39.993 -0.52,-42.386 -0.102,-2.396 8.018,-5.311 8.018,-5.311 0,0 2.187,48.429 1.358,53.633 -0.834,5.209 -3.959,7.916 -7.814,7.812 -3.855,-0.104 -17.702,-10.935 -19.787,-34.052 -1.518,-16.868 6.001,-30.567 17.535,-37.234 l -3.416,-75.722 c 3.072,-1.23 6.221,-1.795 9.268,-1.923 l 2.932,74.146 c 1.77,-0.418 3.585,-0.701 5.445,-0.822 18.954,-1.252 50.197,7.186 54.886,40.614 4.685,33.431 -28.85,58.842 -63.528,59.26 -34.683,0.416 -87.243,-18.415 -102.584,-79.777 0,0 -8.946,-41.887 31.426,-71.343 22.633,-16.516 46.194,-24.677 61.833,-28.879 l -2.986,-67.502 c 0,0 -0.449,-4.59 4.375,-4.482 l 31.334,68.706 c 4.5,-0.022 22.721,1.495 48.923,5.2 -0.087,-0.459 -0.171,-0.918 -0.255,-1.385 -2.254,-12.563 -3.604,-26.266 -3.604,-37.258 0,-8.422 0.449,-12.133 3.003,-23.267 -2.401,-2.568 -4.056,-3.427 -6.006,-3.427 -2.254,0 -3.457,1.287 -4.958,4.854 -1.348,3.284 -2.552,10.564 -2.552,15.56 0,2.427 0.298,5.283 1.052,8.707 0.6,3.568 0.749,3.998 0.749,4.855 0,1.57 -0.149,1.711 -2.103,1.998 -0.751,0.142 -1.201,0.284 -2.252,0.714 -0.149,0.998 -0.149,1.853 -0.149,2.283 0,0.857 0,1.428 0.149,2.284 0.151,0.57 0.151,1 0.151,1.143 0,2.425 -1.954,8.422 -3.153,9.848 -1.054,1.287 -2.405,1.713 -6.011,2.427 -1.354,0.143 -2.702,0.426 -3.753,0.714 -2.552,0.714 -4.506,0.999 -5.707,0.999 -8.561,0 -18.322,-21.127 -18.322,-39.399 0,-14.988 6.309,-24.695 16.07,-24.695 5.705,0 9.762,4.14 14.718,15.418 1.802,-4.142 2.703,-5.711 3.456,-7.139 2.252,-3.853 6.007,-6.278 9.46,-6.278 3.602,0 7.058,1.283 10.963,4.138 3.005,-6.139 8.714,-10.563 13.815,-10.563 4.657,0 8.264,4.854 11.868,16.13 0.804,2.485 1.499,4.92 2.099,7.302 0.004,-1.198 0.014,-2.403 0.153,-3.734 0.152,-2.569 0.302,-4.853 0.302,-5.567 0,-0.43 0,-0.571 -0.15,-0.998 0,-0.855 -0.152,-1.429 -0.152,-1.429 0,-1.141 1.652,-3.996 3.006,-5.279 1.499,-1.43 3.904,-2.427 6.156,-2.427 1.503,0 2.103,0.712 3.001,3.992 l 3.907,14.993 c 1.049,4.139 4.955,14.701 6.908,18.554 2.855,5.713 4.356,7.424 5.857,7.569 1.051,0 1.802,-1.428 1.802,-3.286 l 0.303,-25.41 -0.602,-5.995 c -0.303,-0.57 -0.452,-0.996 -0.452,-1.282 0,-2.143 5.858,-6.282 8.864,-6.282 1.8,0 2.55,1.713 3.001,6.709 0.6,4.853 6.01,21.696 10.064,31.118 1.503,3.57 3.154,5.995 4.206,5.995 0.899,0 1.499,-1.712 1.499,-4.424 l 0,-12.847 c -1.052,-17.415 3.158,-29.976 9.911,-29.976 3.307,0 6.462,2.999 9.464,8.562 0.616,1.174 1.22,2.489 1.793,3.885 1.421,-3.51 3.445,-6.256 6.014,-8.023 2.704,-1.855 9.013,-3.569 12.768,-3.569 5.705,0 11.265,6.282 14.866,16.846 l 7.36,21.412 0.904,2.712 c 0.148,0.998 0.451,1.712 0.599,1.57 l 0.15,0 0.149,0 0.302,-0.286 c 0.149,-0.286 0.149,-0.854 0.149,-2.713 0,-1.999 0,-2.854 -0.298,-5.137 l -0.302,-3.569 -1.052,-18.272 c -0.152,-3.998 4.807,-8.994 8.859,-8.994 1.955,0 3.909,1.999 4.658,4.853 l 3.908,14.274 c 2.699,9.852 6.458,18.415 7.957,18.415 0.903,0 1.35,-1.426 1.35,-3.71 l 0,-16.702 c 0,-7.708 1.656,-13.99 4.507,-17.415 2.555,-2.995 6.31,-5.138 9.013,-5.138 1.499,0 2.405,0.428 3.305,1.571 0.776,0.858 1.745,2.219 2.717,3.763 2.238,-1.367 5.726,-2.907 6.742,-2.907 1.205,0 2.252,1.571 2.703,3.996 2.856,16.416 12.316,39.256 16.22,39.256 0.753,0 1.502,-1.001 1.502,-2.286 l 0.303,-16.13 c 0.298,-15.275 6.156,-27.407 13.214,-27.407 2.692,0 6.023,4.264 8.64,11.006 2.323,-5.75 6.56,-8.865 12.386,-8.865 5.25,0 8.707,4.426 13.215,16.703 0.448,0.998 0.903,2.14 1.35,3.425 2.252,-11.561 3.908,-14.988 8.11,-17.132 2.406,-1.283 5.105,-2.139 6.156,-2.139 3.308,0 8.714,8.85 12.917,20.984 l 7.811,23.266 1.205,-13.131 0.899,-6.71 c 0.326,-2.474 0.56,-4.516 0.729,-6.413 l 8.13,4.661 C 8.953,15.098 8.905,15.394 8.859,15.701 7.808,22.697 7.203,26.835 7.203,30.262 L 6.9,41.11 c 0,1.999 0.303,4.282 0.908,6.565 0.148,1.001 0.297,1.715 0.297,2.429 0,2.428 -3.754,4.425 -8.859,4.709 -1.597,-0.003 -1.451,0.471 -3.267,-0.276 -0.672,-0.272 -0.939,-2.721 -0.939,-2.721 l -5.56,-20.128 c -2.554,-9.42 -7.509,-22.696 -10.515,-28.407 -1.498,-2.854 -2.099,-3.423 -2.852,-3.423 -1.951,0 -3.453,5.564 -3.453,12.418 0,0.142 0,1.284 0.153,2.997 l 0.597,8.707 0.455,3.569 0.451,3.57 0.145,1.997 c 0,0 0.181,1.509 0.303,1.999 0.109,0.44 0.297,0.858 0.297,0.999 0,0.428 -1.047,2.285 -2.248,3.998 -0.75,0.998 -2.554,1.856 -4.057,1.856 -0.451,0 -1.35,-0.146 -2.402,-0.43 -1.502,-0.284 -1.491,-0.592 -1.73,-1.143 -2.091,-4.788 -1.883,-8.338 -3.228,-14.272 l -4.207,-12.991 c -2.848,-8.708 -7.505,-16.416 -9.911,-16.416 -2.252,0 -3.904,4.853 -3.904,12.134 0,3.426 0.452,9.278 1.048,11.564 l 3.457,14.986 c 0.447,1.714 1.051,3.709 1.805,5.997 0.447,1.14 0.599,1.854 0.599,2.425 0,1.999 -2.851,4.282 -5.257,4.282 -3.605,0 -4.355,-0.284 -4.508,-1.712 L -59.93,44.68 -64.135,27.549 c -1.201,-4.997 -1.801,-10.135 -1.801,-14.986 0,-1.084 0.036,-2.125 0.102,-3.127 -1.432,-4.593 -2.967,-8.234 -4.457,-10.437 -1.052,-1.711 -3.756,-3.71 -4.654,-3.71 -1.502,0.142 -2.252,4.424 -2.252,12.989 l 0,0.856 0.451,17.701 c -0.306,13.277 -2.707,17.845 -9.463,17.845 -4.811,0 -6.607,-1.284 -10.061,-7.995 -2.526,-4.559 -5.586,-11.547 -8.906,-20.187 -0.628,-1.636 -1.263,-3.329 -1.91,-5.079 -0.602,2.283 -0.75,3.284 -0.75,4.997 0,0.854 0.016,1.869 0.047,2.966 0.126,4.587 0.49,10.635 0.851,12.595 l 1.955,12.559 c 0,0 0.585,2.301 0.462,3.193 -0.49,3.644 -3.28,7.236 -7.949,3.946 -0.337,-0.236 -0.47,-1.571 -0.47,-1.571 l -2.705,-16.274 c -0.751,-5.14 -1.655,-14.133 -1.655,-17.701 l 0,-1.142 0.455,-9.277 c 0.056,-2.352 0.185,-4.19 0.389,-5.634 -0.13,-0.264 -0.259,-0.525 -0.389,-0.791 -1.055,-2.285 -2.557,-3.996 -3.456,-3.996 l -0.902,0.571 c -2.104,1.286 -3.002,4.14 -3.002,9.705 l 0,3.569 0.148,2.713 0,0.286 -0.148,10.708 c 0,12.416 -2.703,19.841 -7.211,19.841 -1.504,0 -3.305,-0.86 -4.505,-2.284 -2.856,-3.142 -6.761,-9.849 -8.412,-14.562 l -5.858,-16.986 0.302,12.562 0.149,3.139 0.149,2.57 0,2.855 c 0.154,2.856 0.154,4.569 0.303,6.138 0.152,2.14 0.152,3.71 0.152,4.71 0,5.426 -1.958,8.42 -5.559,8.42 -3.755,0 -7.059,-2.566 -8.412,-6.421 l -9.762,-29.407 c -4.202,-12.418 -7.506,-16.985 -12.466,-16.985 -5.253,0 -8.863,6.71 -8.863,16.557 0,0.714 0,1.857 0.157,3.284 2.699,-0.713 3.602,-0.857 5.705,-0.857 8.107,0 14.713,8.422 14.713,18.702 0,3.711 -1.047,7.705 -2.853,10.563 -0.447,0.712 -0.749,0.856 -2.248,1.712 l -1.651,1.003 -0.754,0.709 c -2.55,2.143 -5.795,3.918 -9.008,3.141 -1.166,-0.28 -3.582,-1.085 -4.355,-2.001 -0.074,-0.082 -0.154,-0.426 -0.154,-0.426 -0.599,-1.285 -0.752,-1.569 -1.498,-2.854 -4.057,-7.137 -7.361,-19.985 -7.361,-29.12 0,-2.296 0.153,-4.461 0.436,-6.498 -0.824,-1.815 -1.966,-4.255 -3.74,-8.063 -1.8,-3.712 -3.601,-5.423 -5.559,-5.423 -1.797,0 -2.699,4.138 -2.55,10.849 l 0,5.139 0,1.997 1.051,16.13 c 0.149,1.712 0.149,2.997 0.149,3.426 0,2.429 -0.6,6.282 -1.349,7.851 -0.749,1.854 -3.606,3.14 -7.059,3.14 -2.107,0 -6.46,-3.995 -8.714,-7.994 l -5.406,-9.419 c -1.351,-2.569 -3.003,-6.711 -4.054,-9.709 0,3.713 -0.149,4.427 -0.3,7.423 l -0.151,3.855 c -0.601,11.135 -2.252,14.133 -8.259,14.133 -3.606,0 -5.407,-0.999 -8.41,-5.14 -4.205,-5.566 -7.81,-12.705 -12.468,-23.838 l 2.252,32.972 c 0.154,1.43 0.154,1.43 0.154,1.857 0,1.287 -0.452,1.57 -2.406,1.857 l -1.349,0.14 c -0.601,0.146 -1.058,0.197 -1.354,0.146 -1.628,-0.28 -5.399,-1.927 -5.556,-3.571 -0.118,-1.238 1.201,-1.854 1.201,-2.998 0,-0.713 0,-1.284 -0.149,-1.997 -0.758,-6.191 -1.354,-11.474 -1.805,-16.015 l -1.799,-7.537 c -0.905,-3.285 -5.86,-14.847 -9.915,-22.697 -1.35,-2.573 -2.553,-3.998 -3.604,-3.998 -2.402,0 -4.802,4.568 -6.756,12.56 4.657,7.994 6.756,13.134 9.613,22.698 4.078,13.054 7.047,29.148 7.575,40.025 12.765,2.086 26.803,4.498 41.764,7.503 136.995,27.516 186.008,22.151 186.008,22.151 C 38.305,96.433 43.873,56.205 37.359,37.617 33.875,27.656 20.811,18.454 9.432,12.053 6.462,10.379 3.609,8.896 1.066,7.641 -4.834,4.737 -9.037,3.052 -9.037,3.052 c -1.483,-0.404 -2.982,-2.14 -2.982,-3.767 0,-1.571 0.597,-2.285 3.453,-4.139 0,0 3.955,-2.556 5.403,-3.139 3.876,-1.568 5.411,-1.142 6.909,-1.142 2.256,0 4.062,0.997 5.56,3.137 1.051,1.715 1.201,2.429 1.201,6.71 0,1.742 -0.071,3.384 -0.303,5.569 42.956,15.631 40.17,48.621 40.17,48.621 m -306.243,134.614 c 0,4.518 3.575,8.182 7.981,8.182 4.41,0 7.986,-3.664 7.986,-8.182 0,-4.518 -3.576,-8.183 -7.986,-8.183 -4.406,0 -7.981,3.665 -7.981,8.183 m -24.938,0 c 0,4.518 3.573,8.182 7.98,8.182 4.41,0 7.983,-3.664 7.983,-8.182 0,-4.518 -3.573,-8.183 -7.983,-8.183 -4.407,0 -7.98,3.665 -7.98,8.183 m -2.598,-65.288 c -1.279,3.282 -2.079,8.849 -2.079,15.272 0,5.852 0.962,16.562 2.079,22.269 l 1.119,5.283 c 0.159,1.141 0.512,1.085 2.232,1.427 0,0 5.949,1.087 7.367,-1.057 1.316,-1.987 0.143,-9.222 0.143,-9.222 -0.478,-3.569 -0.957,-5.995 -1.279,-7.422 l -1.436,-12.704 c -0.161,-2.427 -0.322,-4.283 -0.322,-5.854 0,-7.137 1.44,-11.561 3.676,-11.561 1.378,0 3.836,3.255 6.143,7.961 0,0 0.578,-4.853 2.491,-8.025 -0.111,-0.185 -0.221,-0.356 -0.329,-0.507 -2.555,-3.57 -5.11,-5.426 -7.665,-5.426 -4.951,0 -9.907,3.857 -12.14,9.566 m 139.401,32.259 c 0.33,0.932 0.672,1.797 1.009,2.57 3.194,7.28 7.823,11.706 12.3,11.706 3.351,0 7.184,-5.568 7.184,-10.419 l 0,-1.287 0,-1.57 c -0.635,-0.57 -0.635,-0.716 -1.118,-1.286 0,0 -1.664,-4.464 -2.072,-5.994 -0.651,-2.424 -1.918,-9.852 -1.918,-9.852 -2.236,-10.846 -8.146,-20.41 -13.101,-20.697 -3.323,-0.121 -6.164,4.161 -6.858,10.145 -0.11,0.914 -0.165,1.864 -0.165,2.844 0,6.05 2.236,16.866 4.739,23.84 m -116.22,-35.892 c 0.247,-0.426 0.506,-0.838 0.788,-1.221 1.758,-2.569 5.431,-4.282 8.786,-4.282 3.676,0 6.23,3.568 9.742,13.418 l 9.424,26.551 c 0.957,2.426 2.7,6.183 3.196,6.138 0.312,-0.027 0.979,-0.288 1.116,-0.57 0.424,-0.873 0.479,-3.858 0.479,-3.858 l 0,-0.425 -2.395,-24.41 c -0.16,-2.001 -0.64,-8.994 -0.64,-10.281 0,-3.136 1.281,-4.71 4.792,-5.851 l 1.758,-0.57 c 0.958,-0.427 1.758,-0.572 2.394,-0.572 1.757,0 3.354,1.428 3.515,3.427 0.479,4.283 3.359,13.703 6.549,21.127 2.715,6.425 6.548,13.703 7.349,13.846 1.114,-0.143 1.114,-0.285 1.435,-1.856 0.801,-4.14 0.962,-5.14 0.962,-8.706 l -0.161,-9.707 c -1.122,-9.993 -1.122,-9.993 -1.122,-10.564 0,-2.855 3.837,-6.567 6.87,-6.567 1.915,0 4.152,2.57 4.473,4.997 0.478,5.422 10.221,30.691 13.576,35.403 0.961,1.425 1.278,1.853 1.597,1.71 0.639,-0.285 1.118,-3.996 1.118,-8.707 0,-1.427 0,-2.712 -0.157,-4.568 l 0,-5.281 0.478,-5.425 c 0.157,-1.855 1.118,-6.139 2.237,-9.134 1.118,-3.714 2.558,-5.854 4.948,-7.996 2.08,-1.854 4.794,-3.139 6.552,-2.996 1.753,0.142 3.994,1.711 6.07,4.281 0.549,0.697 1.106,1.525 1.659,2.456 3.276,-3.871 8.17,-6.452 12.557,-6.452 4.315,0 8.945,2.711 11.66,6.851 l 4.151,6.137 c 3.515,-9.277 6.07,-12.276 10.225,-12.276 2.075,0 3.99,1.856 5.43,5.283 1.436,3.996 1.805,4.214 2.076,5.711 0.05,0.281 -0.479,0.998 -0.64,0.998 -0.318,0 -1.597,-1.287 -2.236,-2.285 -1.118,-1.856 -3.033,-3.28 -4.152,-3.28 -1.596,0 -2.553,6.137 -2.553,14.843 0,0.429 0,1.287 0.156,1.999 l 0.641,8.565 0.32,1.569 c 0,0 0.166,1.305 0.322,1.714 0.385,1.044 1.911,2.786 2.233,3.854 0.204,0.682 -1.119,1.569 -3.516,2.998 l -1.44,1.141 0,1.712 c 0,8.422 -2.876,12.99 -9.259,14.704 -1.118,0.144 -1.28,0.287 -1.918,0.574 -2.395,1.139 -6.867,2.139 -9.905,2.139 -3.515,0 -7.187,-2.713 -10.059,-7.422 -5.591,-9.423 -8.789,-21.841 -8.789,-33.832 0,-3.579 0.424,-6.509 1.299,-9.1 -0.829,-1.584 -1.558,-2.901 -2.095,-3.747 -1.279,-2.141 -2.237,-2.855 -3.359,-2.855 -0.796,0 -1.911,0.428 -2.711,0.998 -1.44,1.286 -1.44,1.286 -1.44,10.993 l 0.16,19.27 c 0.161,3.996 -0.478,8.567 -1.118,11.563 -0.8,2.998 -3.672,5.565 -6.388,5.565 -0.321,0 -3.036,-0.712 -3.511,-0.998 -0.804,-0.284 -1.118,-0.712 -2.401,-2.141 -3.673,-4.566 -6.066,-9.279 -11.34,-22.839 l -3.036,-7.564 0.16,16.27 c 0.162,7.424 -2.553,11.42 -7.662,11.42 -3.354,0 -8.31,-6.281 -13.096,-16.271 l -5.435,-11.565 1.915,22.125 0,1.715 c 0,4.71 -0.158,5.995 -0.954,8.279 -0.8,2.428 -2.715,4.139 -4.794,3.998 -3.194,-0.143 -7.028,-1.144 -8.464,-2.284 -1.118,-0.713 -2.558,-3.142 -3.833,-6.424 l -5.434,-13.56 c -0.958,-2.142 -0.477,-1.001 -1.277,-3.143 -0.797,-2.14 -1.597,-4.283 -2.235,-6.422 -3.676,-10.85 -5.593,-14.844 -6.87,-14.989 -1.118,-0.141 -1.754,4.283 -1.754,10.421 0,1.285 0,2.14 0.157,4.14 l 0.32,4.853 0.48,5.854 2.233,10.419 0.803,2.427 c 0.319,1.141 0.637,1.999 0.637,2.426 0,1.999 -2.715,3.998 -5.111,3.998 -1.116,0 -2.556,-0.145 -3.992,-0.429 -1.438,-0.144 -1.412,-0.535 -1.648,-0.751 0,0 -1.106,-3.596 -1.386,-4.817 -0.424,-1.836 -1.278,-7.421 -1.278,-7.421 -0.961,-4.997 -1.281,-9.28 -1.281,-16.987 0,-3.712 0.179,-6.817 0.556,-9.454 0,0 0.58,-4.853 2.491,-8.025"
             id="path3009"
             style="fill:#d75da3;fill-opacity:1;fill-rule:nonzero;stroke:none" /></g></g></g></g></svg>